<svg width="20" height="20" viewBox="0 0 20 20" fill="none" xmlns="http://www.w3.org/2000/svg">
<path d="M0.938017 9.11003L0.938023 9.11005C1.31478 10.0295 1.85559 10.7287 2.39666 11.1287C2.94534 11.5342 3.40771 11.5813 3.72962 11.4215C4.06922 11.253 4.36078 10.8059 4.45104 10.0577C4.53917 9.32726 4.41661 8.40898 4.0403 7.49054C3.66351 6.57141 3.12272 5.8723 2.58165 5.47237C2.03297 5.06684 1.5706 5.0197 1.24868 5.17936L0.938017 9.11003ZM0.938017 9.11003C0.561718 8.19181 0.43915 7.27358 0.52727 6.54315M0.938017 9.11003L0.52727 6.54315M0.52727 6.54315C0.617528 5.79499 0.909071 5.3479 1.24863 5.17938L0.52727 6.54315ZM0.475519 9.29957L0.475403 9.29962L0.475519 9.29957Z" fill="#C11322" stroke="black"/>
<path d="M16.2704 11.4216L16.2704 11.4216C16.5923 11.5813 17.0547 11.5343 17.6033 11.1287C18.1444 10.7288 18.6852 10.0295 19.0621 9.11011L16.2704 11.4216ZM16.2704 11.4216C15.9308 11.253 15.6392 10.8059 15.5489 10.0578M16.2704 11.4216L15.5489 10.0578M15.5489 10.0578C15.4608 9.32734 15.5833 8.40908 15.9596 7.49066L15.5489 10.0578ZM19.4727 6.54321C19.3824 5.79503 19.0909 5.34794 18.7513 5.17943L19.4727 6.54321ZM19.4727 6.54321C19.5608 7.27364 19.4383 8.19185 19.0621 9.11006L19.4727 6.54321ZM15.9597 7.49059C16.3365 6.57147 16.8773 5.87235 17.4184 5.47243C17.967 5.06688 18.4294 5.01976 18.7513 5.17941L15.9597 7.49059Z" fill="#C11322" stroke="black"/>
<path d="M8.73982 3.44546L8.73982 3.44544C8.54628 2.45746 8.14934 1.6441 7.69209 1.12311C7.22541 0.591367 6.77658 0.440465 6.43669 0.521073L6.43665 0.521084C6.0856 0.604304 5.71998 0.962362 5.4894 1.67197C5.26463 2.36373 5.20874 3.29007 5.40215 4.27732C5.59569 5.26519 5.99264 6.07856 6.44992 6.59963C6.91658 7.13138 7.36539 7.2824 7.70523 7.20194L8.73982 3.44546ZM8.73982 3.44546C8.93325 4.43272 8.87738 5.35904 8.6526 6.05082M8.73982 3.44546L8.6526 6.05082M8.6526 6.05082C8.42207 6.76034 8.05648 7.11852 7.70538 7.2019L8.6526 6.05082Z" fill="#C11322" stroke="black"/>
<path d="M12.2648 7.20336L12.2649 7.2034C12.6048 7.28404 13.0536 7.13317 13.5203 6.6014C13.9776 6.08039 14.3745 5.267 14.568 4.27905L14.568 4.27904C14.7614 3.29177 14.7056 2.36542 14.4808 1.67366C14.2503 0.964056 13.8846 0.606001 13.5336 0.522778L13.5336 0.522773C13.1936 0.44218 12.7448 0.593109 12.2781 1.12482C11.8209 1.64579 11.424 2.45911 11.2306 3.44707L12.2648 7.20336ZM12.2648 7.20336C11.9139 7.1202 11.5484 6.76224 11.3178 6.05257M12.2648 7.20336L11.3178 6.05257M11.3178 6.05257C11.0931 5.36078 11.0373 4.43438 11.2305 3.4471L11.3178 6.05257Z" fill="#C11322" stroke="black"/>
<path d="M5.1647 13.4233C4.2318 14.0479 3.07576 14.9627 3.26976 17.063C3.46365 19.1637 5.42205 20.0627 6.71128 19.983C6.93016 19.9695 7.18195 19.9508 7.45764 19.9303C8.80588 19.8301 10.726 19.6874 12.1668 19.9071M5.1647 13.4233L5.44287 13.8388C5.44288 13.8388 5.44288 13.8388 5.44289 13.8388M5.1647 13.4233C6.09767 12.7986 7.44657 10.9677 7.73765 10.4145M5.1647 13.4233L5.44289 13.8388M5.44289 13.8388C4.98588 14.1448 4.53385 14.4847 4.21005 14.968C3.89609 15.4367 3.68061 16.0747 3.76764 17.017L3.76765 17.017C3.84956 17.9045 4.2978 18.5288 4.86848 18.9324C5.45235 19.3454 6.15191 19.5166 6.68041 19.4839L6.68056 19.4839C6.88738 19.4712 7.12949 19.4531 7.39773 19.4331C8.74045 19.3327 10.7379 19.1835 12.2422 19.4129L12.1668 19.9071M5.44289 13.8388C5.97676 13.4813 6.58718 12.8155 7.08035 12.2069C7.57694 11.5941 8.01141 10.9679 8.18007 10.6475M12.1668 19.9071L12.2422 19.4129C13.0725 19.5395 13.9662 19.546 14.6904 19.3114C15.3886 19.0852 15.9147 18.6449 16.1209 17.8365C16.5601 16.1144 15.6058 15.0149 14.7609 14.3286M12.1668 19.9071C13.9022 20.1718 16.0925 19.9713 16.6054 17.9601C17.1183 15.9489 15.9712 14.6675 15.076 13.9404M14.7609 14.3286L8.18007 10.6475M14.7609 14.3286L15.076 13.9404M14.7609 14.3286L14.7608 14.3286L15.076 13.9404M15.076 13.9404C14.1809 13.2138 12.686 11.04 12.2255 10.042M12.2255 10.042C11.765 9.04443 9.42113 7.21736 7.73765 10.4145M12.2255 10.042L11.7715 10.2515M12.2255 10.042L11.7715 10.2516C11.7715 10.2515 11.7715 10.2515 11.7715 10.2515M7.73765 10.4145L8.18012 10.6474M7.73765 10.4145L8.18007 10.6475M8.18007 10.6475L8.18012 10.6474M8.18012 10.6474C8.5712 9.90469 8.97443 9.50419 9.33083 9.30225C9.67888 9.10504 10.0178 9.07651 10.3361 9.14428C10.6643 9.21416 10.9805 9.38982 11.2447 9.61228C11.5122 9.83743 11.6935 10.0825 11.7715 10.2515M8.18012 10.6474L11.7715 10.2515" fill="#C11322" stroke="black"/>
</svg>
