<svg width="25" height="27" viewBox="0 0 25 27" fill="none" xmlns="http://www.w3.org/2000/svg">
<path d="M8.86996 1.45585H8.36996V1.95585V3.42149V3.92149H8.86996H9.72199C9.96283 3.92149 10.0821 3.99909 10.1625 4.11154C10.2635 4.25301 10.3505 4.52071 10.3505 4.97816C10.3505 6.32087 9.83096 8.19031 9.04089 9.72805C8.64763 10.4935 8.20133 11.1488 7.74454 11.6052C7.27901 12.0703 6.86277 12.2706 6.52317 12.2706C6.1837 12.2706 5.76798 12.0704 5.30322 11.6054C4.84715 11.1491 4.40177 10.4939 4.00941 9.72847C3.22119 8.1908 2.70329 6.3212 2.70329 4.97816C2.70329 4.52082 2.79023 4.25247 2.89109 4.11058C2.9713 3.99775 3.08903 3.92149 3.32437 3.92149H4.17638H4.67638V3.42149V1.95585V1.45585H4.17638H3.38415C2.48157 1.45585 1.72507 1.75799 1.21043 2.41267C0.712821 3.04567 0.5 3.93539 0.5 4.99636C0.5 6.96103 1.22275 9.35357 2.26883 11.2536C2.79351 12.2067 3.41304 13.0609 4.08839 13.6836C4.49865 14.0619 4.94897 14.3722 5.42655 14.5555C5.50225 16.5344 5.84244 18.1489 6.45101 19.3239C7.16413 20.7009 8.26719 21.5 9.70707 21.5C11.0511 21.5 12.0634 20.827 12.7938 19.5987C13.5038 18.4047 13.9666 16.6623 14.2827 14.4254C14.5208 12.776 14.7959 11.7634 15.1124 11.1723C15.2666 10.884 15.4169 10.7231 15.5521 10.6325C15.6813 10.546 15.827 10.5032 16.0149 10.5032C16.2162 10.5032 16.3758 10.5617 16.5184 10.6797C16.6703 10.8054 16.8263 11.0191 16.968 11.3633C17.2551 12.0608 17.4328 13.166 17.4884 14.7364L17.5055 15.2187H17.9881H19.1913H19.7193L19.6906 14.6915C19.5776 12.6178 19.2844 10.9878 18.7233 9.86207C18.4393 9.29215 18.0765 8.83084 17.6145 8.51286C17.1479 8.19166 16.61 8.03755 16.0149 8.03755C15.4874 8.03755 14.9956 8.14767 14.5499 8.40124C14.1056 8.65404 13.7367 9.03249 13.4278 9.52456C12.8207 10.4916 12.4133 11.9507 12.1124 13.9525L12.1123 13.9535C11.8468 15.7437 11.5557 17.05 11.1385 17.9024C10.9333 18.3218 10.7118 18.6005 10.4759 18.7746C10.248 18.9429 9.97898 19.0343 9.63229 19.0343C9.10422 19.0343 8.61117 18.7067 8.22447 17.8027C7.90107 17.0466 7.69145 15.9591 7.63138 14.554C8.10744 14.3704 8.55635 14.0609 8.96544 13.6836C9.6408 13.0609 10.2603 12.2067 10.785 11.2536C11.8311 9.35357 12.5538 6.96103 12.5538 4.99636C12.5538 3.93543 12.341 3.0454 11.8421 2.41222C11.3262 1.75747 10.5677 1.45585 9.66222 1.45585H8.86996Z" fill="#C11322" stroke="black"/>
<path d="M18.6418 13.5269H18.6418C16.9654 13.5151 15.7691 15.1427 15.7691 16.9035C15.7691 18.6862 16.9674 20.2892 18.6383 20.2892C20.3026 20.2892 21.5 18.6851 21.5 16.9035C21.5 15.1365 20.3005 13.5385 18.6418 13.5269ZM4.55009 4.54961C5.52869 4.54961 6.17117 3.60767 6.17117 2.67502C6.17117 1.74236 5.52869 0.800415 4.55009 0.800415C3.56591 0.800415 2.92154 1.74005 2.92154 2.67502C2.92154 3.60998 3.56591 4.54961 4.55009 4.54961ZM8.48881 4.54961C9.47297 4.54961 10.1174 3.61 10.1174 2.67502C10.1174 1.74003 9.47297 0.800415 8.48881 0.800415C7.51021 0.800415 6.86773 1.74236 6.86773 2.67502C6.86773 3.60767 7.51022 4.54961 8.48881 4.54961ZM18.6383 18.0057C18.2739 18.0057 17.8155 17.6032 17.8155 16.9035C17.8155 16.1967 18.2723 15.8013 18.6383 15.8013C19.001 15.8013 19.4537 16.1927 19.4537 16.9035C19.4537 17.6071 18.9994 18.0057 18.6383 18.0057Z" fill="black" stroke="black"/>
<g filter="url(#filter0_d_338_430)">
<path d="M18.5998 17.7792C19.0219 17.7792 19.3677 17.3594 19.3677 16.8471C19.3677 16.3347 19.0219 15.9149 18.5998 15.9149C18.1829 15.9149 17.8371 16.3347 17.8371 16.8471C17.8371 17.3594 18.1829 17.7792 18.5998 17.7792Z" fill="#C11322"/>
<path d="M18.5998 18.2792C19.3844 18.2792 19.8677 17.5405 19.8677 16.8471C19.8677 16.1536 19.3844 15.4149 18.5998 15.4149C17.8185 15.4149 17.3371 16.1559 17.3371 16.8471C17.3371 17.5382 17.8185 18.2792 18.5998 18.2792Z" stroke="black"/>
</g>
<defs>
<filter id="filter0_d_338_430" x="12.8371" y="14.9149" width="11.5306" height="11.8644" filterUnits="userSpaceOnUse" color-interpolation-filters="sRGB">
<feFlood flood-opacity="0" result="BackgroundImageFix"/>
<feColorMatrix in="SourceAlpha" type="matrix" values="0 0 0 0 0 0 0 0 0 0 0 0 0 0 0 0 0 0 127 0" result="hardAlpha"/>
<feOffset dy="4"/>
<feGaussianBlur stdDeviation="2"/>
<feComposite in2="hardAlpha" operator="out"/>
<feColorMatrix type="matrix" values="0 0 0 0 0 0 0 0 0 0 0 0 0 0 0 0 0 0 0.25 0"/>
<feBlend mode="normal" in2="BackgroundImageFix" result="effect1_dropShadow_338_430"/>
<feBlend mode="normal" in="SourceGraphic" in2="effect1_dropShadow_338_430" result="shape"/>
</filter>
</defs>
</svg>
